<mxfile host="app.diagrams.net" modified="2023-10-15T15:48:05.258Z" agent="Mozilla/5.0 (Windows NT 10.0; Win64; x64) AppleWebKit/537.36 (KHTML, like Gecko) Chrome/118.0.0.0 Safari/537.36" version="22.0.4" etag="W4GJ0BNg6Y7gAFdlSwH_" type="github">
  <diagram name="Page-1" id="XN7CTonLKZubEAzromIY">
    <mxGraphModel>
      <root>
        <mxCell id="0" />
        <mxCell id="1" parent="0" />
      </root>
    </mxGraphModel>
  </diagram>
</mxfile>
